<svg width="595" height="461" viewBox="0 0 595 461" fill="none" xmlns="http://www.w3.org/2000/svg">
<path d="M445.923 427.835C445.899 431.924 444.998 435.788 443.469 439.406C441.96 442.974 439.787 446.185 437.041 448.931C431.196 454.717 424.243 457.639 416.178 457.639C412.029 457.639 408.114 456.879 404.373 455.301C400.575 453.782 397.303 451.619 394.614 448.931C391.868 446.185 389.705 442.97 388.186 439.289C386.608 435.666 385.849 431.867 385.849 427.835V353.385C385.849 344.561 387.543 336.145 390.991 328.139C394.438 320.074 399.289 312.887 405.542 306.634C411.678 300.498 418.866 295.706 426.931 292.259C435.054 288.81 443.469 287.115 452.293 287.115C465.325 287.115 477.538 290.797 489.109 298.102C500.154 290.797 512.368 287.115 525.75 287.115C534.632 287.115 543.281 288.81 551.697 292.259C560.053 295.706 567.534 300.498 574.02 306.634C580.624 312.887 585.708 320.074 589.331 328.197C592.954 336.321 594.708 344.677 594.708 353.385V427.835C594.708 431.867 593.947 435.666 592.428 439.289C590.85 442.97 588.747 446.185 586 448.931C583.253 451.619 580.039 453.782 576.416 455.301C572.734 456.879 568.936 457.639 564.962 457.639C560.813 457.639 556.898 456.879 553.099 455.301C549.359 453.782 546.086 451.619 543.34 448.931C540.652 446.185 538.524 442.955 536.97 439.289C535.427 435.652 534.52 431.866 534.632 427.835L536.694 354.346C536.74 352.711 535.096 351.492 533.348 350.26C531.533 348.981 528.321 349.587 526.217 349.587C524.873 349.587 523.646 349.937 522.536 350.638C521.484 351.339 520.725 352.216 520.257 353.385C520.257 354.144 519.701 354.947 519.818 355.18L520.432 427.017C520.467 431.107 519.637 435.008 518.094 438.705C516.54 442.43 514.413 445.659 511.667 448.406C508.979 451.152 505.764 453.256 502.082 454.834C498.459 456.353 494.602 457.113 490.629 457.113C486.538 457.113 482.564 456.353 478.824 454.834C475.084 453.256 471.812 451.152 469.064 448.406C466.201 445.542 463.971 442.273 462.462 438.646C460.932 434.969 460.119 431.107 460.182 427.017L461.253 356.652L460.751 355.011C460.751 353.433 459.042 352.244 457.786 351.047C456.529 349.849 455.098 349.294 453.462 349.294C452.235 349.294 450.948 349.587 449.721 350.229C448.436 350.814 447.501 351.632 446.8 352.683C446.8 353.385 446.468 354.023 446.585 354.256L446.367 355.825L445.923 427.835Z" fill="#FF4375"/>
<path d="M193.587 376.756V355.435C193.587 351.402 194.346 347.604 195.983 343.864C197.56 340.182 199.722 336.911 202.469 334.221C205.333 331.474 208.605 329.314 212.229 327.793C215.91 326.215 219.708 325.455 223.682 325.455C227.714 325.455 231.572 326.215 235.37 327.793C239.11 329.314 242.441 331.474 245.304 334.221C248.109 337.027 250.33 340.299 251.967 343.981C253.544 347.604 254.362 351.402 254.362 355.435V376.756H193.587Z" fill="#FF4375"/>
<path d="M295.444 376.706V355.385C295.444 351.47 296.262 347.729 297.899 343.989C299.594 340.308 301.814 336.977 304.678 334.171C307.541 331.424 310.872 329.264 314.729 327.744C318.528 326.165 322.501 325.405 326.593 325.405C330.566 325.405 334.364 326.165 337.988 327.744C341.552 329.264 344.825 331.424 347.63 334.171C350.376 336.861 352.48 340.132 354 343.814C355.461 347.554 356.221 351.352 356.221 355.385V376.706H295.444Z" fill="#FF4375"/>
<path d="M254.362 378.397C254.362 381.318 254.947 384.122 256.174 386.694C257.342 389.265 258.979 391.368 261.025 393.124C263.07 394.935 265.524 396.337 268.329 397.273C271.076 398.266 274.056 398.732 277.095 398.732C282.939 398.732 287.38 397.039 290.477 393.589C293.575 390.2 295.21 385.234 295.444 378.69V367.008H356.221V377.696C356.221 388.623 354.234 399.083 350.318 409.02C346.403 418.953 340.734 427.718 333.429 435.373C326.242 443.029 317.827 448.931 308.126 453.081C298.425 457.288 288.082 459.333 277.095 459.333C266.05 459.333 255.472 457.288 245.363 453.081C235.253 448.931 226.254 443.029 218.422 435.373C210.533 427.601 204.398 418.779 200.073 408.843C195.749 398.908 193.587 388.447 193.587 377.52V367.008H254.362V378.397Z" fill="#FF4375"/>
<path d="M61.5743 311.427C61.6911 314.056 62.3926 316.51 63.6195 318.847C64.9053 321.186 66.5996 323.231 68.7626 324.925C70.8077 326.561 73.0868 327.789 75.5994 328.724C78.1128 329.658 80.6254 330.068 83.1381 330.068C88.6316 330.068 93.3647 328.314 97.3389 324.692C101.371 321.127 103.416 316.744 103.533 311.602V262.98C103.533 259.007 104.351 255.15 105.929 251.41C107.507 247.728 109.727 244.515 112.591 241.767C115.338 239.021 118.61 236.917 122.467 235.398C126.266 233.936 130.239 233.177 134.331 233.177C138.479 233.177 142.336 233.936 146.076 235.398C149.758 236.917 153.031 239.021 155.719 241.767C158.465 244.515 160.569 247.728 162.089 251.41C163.55 255.15 164.309 259.007 164.309 262.98V306.81C164.309 322.763 160.277 337.314 152.153 350.463C144.031 363.611 133.103 373.546 119.253 380.442V426.842C119.253 431.049 118.493 435.024 116.974 438.822C115.455 442.561 113.234 445.893 110.37 448.756C107.624 451.503 104.409 453.665 100.611 455.243C96.8714 456.821 92.9558 457.639 88.982 457.639C84.891 457.639 80.9176 456.821 77.061 455.243C73.2618 453.665 69.9898 451.503 67.2425 448.756C64.3791 446.01 62.1587 442.737 60.5811 438.997C58.9449 435.199 58.1852 431.166 58.1852 426.842V384.357C43.2247 379.565 30.4269 370.916 19.7905 358.352C14.7653 352.391 10.6751 345.788 7.46021 338.541C4.30468 331.296 2.25958 323.698 1.3249 315.692C0.974158 314.114 0.798035 312.478 0.798035 310.725V262.98C0.798035 259.124 1.61706 255.326 3.31142 251.585C4.94758 247.904 7.16805 244.573 10.0314 241.767C12.7784 239.021 16.0507 236.917 19.9081 235.398C23.7065 233.936 27.6799 233.177 31.7709 233.177C40.011 233.177 47.0814 236.041 53.0424 241.767C55.7887 244.515 57.8931 247.728 59.3539 251.41C60.8147 255.15 61.5743 259.007 61.5743 262.98V311.427Z" fill="#FF4375"/>
<path d="M445.923 195.536C445.865 199.627 444.988 203.484 443.469 207.107C441.949 210.672 439.787 213.886 437.041 216.633C431.196 222.418 424.243 225.34 416.178 225.34C412.029 225.34 408.114 224.581 404.373 223.003C400.575 221.483 397.303 219.321 394.614 216.633C391.868 213.886 389.705 210.672 388.186 206.99C386.608 203.368 385.849 199.568 385.849 195.536V121.086C385.849 112.262 387.543 103.847 390.991 95.8404C394.438 87.7757 399.289 80.5885 405.542 74.3353C411.678 68.1988 418.866 63.4075 426.931 59.9598C435.054 56.5114 443.469 54.8167 452.293 54.8167C465.325 54.8167 477.538 58.4983 489.109 65.803C500.154 58.4983 512.368 54.8167 525.75 54.8167C534.632 54.8167 543.281 56.5114 551.697 59.9598C560.053 63.4075 567.534 68.1988 574.02 74.3353C580.624 80.5885 585.708 87.7757 589.331 95.8986C592.954 104.022 594.708 112.378 594.708 121.086V195.536C594.708 199.568 593.947 203.368 592.428 206.99C590.85 210.672 588.747 213.886 586 216.633C583.253 219.321 580.039 221.483 576.416 223.003C572.734 224.581 568.936 225.34 564.962 225.34C560.813 225.34 556.898 224.581 553.099 223.003C549.359 221.483 546.086 219.321 543.34 216.633C540.652 213.886 538.49 210.672 536.97 206.99C535.392 203.368 534.632 199.568 534.632 195.536V123.482C534.632 121.845 534.421 120.447 532.673 119.216C530.859 117.937 529.822 117.496 527.551 117.33C526.211 117.232 523.594 117.919 522.494 118.632C521.436 119.318 521.202 119.952 520.734 121.12C520.639 121.894 520.41 123.487 520.417 123.821L520.432 194.719C520.433 198.806 519.636 202.71 518.094 206.406C516.541 210.13 514.413 213.36 511.667 216.107C508.979 218.853 505.764 220.958 502.082 222.535C498.459 224.054 494.602 224.814 490.629 224.814C486.538 224.814 482.564 224.054 478.824 222.535C475.084 220.958 471.812 218.853 469.064 216.107C466.201 213.243 463.971 209.975 462.462 206.347C460.932 202.67 460.188 198.809 460.182 194.719L460.064 124.526L460.058 122.67C460.058 121.093 459.042 119.946 457.786 118.748C456.529 117.55 455.098 116.996 453.462 116.996C452.235 116.996 450.966 117.324 449.721 117.931C448.453 118.55 448.104 119.083 447.403 120.135C447.203 120.774 447.009 121.507 447.039 121.765L446.975 123.306L445.923 195.536Z" fill="#FF4375"/>
<path d="M254.362 146.098C254.362 149.019 254.947 151.824 256.174 154.396C257.342 156.967 258.979 159.071 261.025 160.824C263.07 162.635 265.524 164.039 268.329 164.974C271.076 165.967 274.056 166.434 277.095 166.434C282.939 166.434 287.38 164.74 290.477 161.291C293.575 157.902 295.21 152.935 295.444 146.39V89.2372C295.444 85.3216 296.262 81.5817 297.899 77.8411C299.594 74.1599 301.814 70.8294 304.678 68.0234C307.541 65.2772 310.872 63.115 314.729 61.596C318.528 60.018 322.501 59.2576 326.593 59.2576C330.566 59.2576 334.364 60.018 337.988 61.596C341.552 63.115 344.825 65.2772 347.63 68.0234C350.376 70.7122 352.48 73.9845 354 77.6658C355.461 81.4064 356.221 85.2044 356.221 89.2372V145.397C356.221 156.325 354.234 166.785 350.318 176.719C346.403 186.654 340.734 195.42 333.429 203.075C326.242 210.73 317.827 216.633 308.126 220.782C298.425 224.989 288.082 227.035 277.095 227.035C266.05 227.035 255.472 224.989 245.363 220.782C235.253 216.633 226.254 210.73 218.422 203.075C210.533 195.303 204.398 186.479 200.073 176.544C195.749 166.61 193.587 156.149 193.587 145.221V89.2372C193.587 85.2044 194.346 81.4064 195.983 77.6658C197.56 73.9845 199.722 70.7122 202.469 68.0234C205.333 65.2772 208.605 63.115 212.229 61.596C215.91 60.018 219.708 59.2576 223.682 59.2576C227.714 59.2576 231.572 60.018 235.37 61.596C239.11 63.115 242.441 65.2772 245.304 68.0234C248.109 70.8294 250.33 74.1013 251.967 77.7825C253.544 81.4064 254.362 85.2044 254.362 89.2372V146.098Z" fill="#FF4375"/>
<path d="M61.5743 79.1278C61.6911 81.7572 62.3926 84.2112 63.6195 86.5485C64.9053 88.8869 66.5996 90.932 68.7626 92.6264C70.8077 94.2625 73.0868 95.4897 75.5994 96.4248C78.1128 97.3595 80.6254 97.7695 83.1381 97.7695C88.6316 97.7695 93.3647 96.0158 97.3389 92.3927C101.371 88.8283 103.416 84.4452 103.533 79.3027V30.6814C103.533 26.708 104.351 22.8514 105.929 19.1108C107.507 15.4295 109.727 12.2158 112.591 9.46842C115.338 6.72221 118.61 4.61853 122.467 3.09916C126.266 1.63762 130.239 0.87793 134.331 0.87793C138.479 0.87793 142.336 1.63762 146.076 3.09916C149.758 4.61853 153.031 6.72221 155.719 9.46842C158.465 12.2158 160.569 15.4295 162.089 19.1108C163.55 22.8514 164.309 26.708 164.309 30.6814V74.5107C164.309 90.4644 160.277 105.015 152.153 118.164C144.031 131.313 133.103 141.247 119.253 148.143V194.543C119.253 198.751 118.493 202.725 116.974 206.523C115.455 210.263 113.234 213.594 110.37 216.457C107.624 219.204 104.409 221.367 100.611 222.944C96.8714 224.522 92.9558 225.34 88.982 225.34C84.891 225.34 80.9176 224.522 77.061 222.944C73.2618 221.367 69.9898 219.204 67.2425 216.457C64.3791 213.711 62.1587 210.438 60.5811 206.698C58.9449 202.9 58.1852 198.867 58.1852 194.543V152.058C43.2247 147.267 30.4269 138.618 19.7905 126.054C14.7653 120.093 10.6751 113.489 7.46021 106.242C4.30468 98.9967 2.25958 91.3995 1.3249 83.3933C0.974158 81.8154 0.798035 80.1792 0.798035 78.4263V30.6814C0.798035 26.8248 1.61706 23.0267 3.31142 19.2861C4.94758 15.6049 7.16805 12.274 10.0314 9.46842C12.7784 6.72221 16.0507 4.61853 19.9081 3.09916C23.7065 1.63762 27.6799 0.87793 31.7709 0.87793C40.011 0.87793 47.0814 3.74206 53.0424 9.46842C55.7887 12.2158 57.8931 15.4295 59.3539 19.1108C60.8147 22.8514 61.5743 26.708 61.5743 30.6814V79.1278Z" fill="#FF4375"/>
<path d="M197.158 289.086V272.223C197.158 269.034 197.815 266.03 199.23 263.072C200.596 260.16 202.466 257.573 204.843 255.446C207.32 253.273 210.151 251.565 213.286 250.362C216.471 249.114 219.757 248.513 223.195 248.513C226.684 248.513 230.021 249.114 233.307 250.362C236.542 251.565 239.425 253.273 241.902 255.446C244.328 257.665 246.25 260.253 247.666 263.165C249.031 266.03 249.739 269.034 249.739 272.223V289.086H197.158Z" fill="#FF4375"/>
<path d="M197.135 273.32V290.741C197.135 294.036 197.793 297.139 199.21 300.195C200.576 303.203 202.449 305.876 204.828 308.074C207.307 310.319 210.141 312.084 213.279 313.326C216.467 314.616 219.756 315.236 223.198 315.236C226.69 315.236 230.03 314.616 233.32 313.326C236.558 312.084 239.443 310.319 241.922 308.074C244.352 305.781 246.275 303.108 247.692 300.099C249.058 297.139 249.767 294.036 249.767 290.741V273.32H197.135Z" fill="#FF4375"/>
<path d="M301.132 289.086V272.223C301.132 269.034 301.789 266.03 303.204 263.072C304.569 260.16 306.44 257.573 308.817 255.446C311.294 253.273 314.125 251.565 317.26 250.362C320.445 249.114 323.731 248.513 327.169 248.513C330.657 248.513 333.995 249.114 337.281 250.362C340.516 251.565 343.399 253.273 345.876 255.446C348.302 257.665 350.224 260.253 351.639 263.165C353.005 266.03 353.712 269.034 353.712 272.223V289.086H301.132Z" fill="#FF4375"/>
<path d="M301.109 273.32V290.741C301.109 294.036 301.767 297.139 303.184 300.195C304.55 303.203 306.422 305.876 308.802 308.074C311.281 310.319 314.115 312.084 317.253 313.326C320.441 314.616 323.73 315.236 327.172 315.236C330.663 315.236 334.004 314.616 337.293 313.326C340.532 312.084 343.417 310.319 345.896 308.074C348.325 305.781 350.249 303.108 351.666 300.099C353.032 297.139 353.741 294.036 353.741 290.741V273.32H301.109Z" fill="#FF4375"/>
<path d="M445.923 428.342C445.865 432.432 444.988 436.29 443.469 439.913C441.949 443.477 439.787 446.692 437.041 449.438C431.196 455.224 424.243 458.146 416.178 458.146C412.029 458.146 408.114 457.386 404.373 455.808C400.575 454.289 397.303 452.126 394.614 449.438C391.868 446.692 389.705 443.477 388.186 439.796C386.608 436.173 385.849 432.374 385.849 428.342V353.891C385.849 345.067 387.543 336.652 390.991 328.646C394.438 320.581 399.289 313.394 405.542 307.141C411.678 301.004 418.866 296.213 426.931 292.765C435.054 289.317 443.469 287.622 452.293 287.622C465.325 287.622 477.538 291.304 489.109 298.609C500.154 291.304 512.368 287.622 525.75 287.622C534.632 287.622 543.281 289.317 551.697 292.765C560.053 296.213 567.534 301.004 574.02 307.141C580.624 313.394 585.708 320.581 589.331 328.704C592.954 336.827 594.708 345.184 594.708 353.891V428.342C594.708 432.374 593.947 436.173 592.428 439.796C590.85 443.477 588.747 446.692 586 449.438C583.253 452.126 580.039 454.289 576.416 455.808C572.734 457.386 568.936 458.146 564.962 458.146C560.813 458.146 556.898 457.386 553.099 455.808C549.359 454.289 546.086 452.126 543.34 449.438C540.652 446.692 538.49 443.477 536.97 439.796C535.392 436.173 534.632 432.374 534.632 428.342V356.287C534.632 354.651 534.421 353.253 532.673 352.022C530.859 350.743 529.822 350.301 527.551 350.135C526.211 350.037 523.594 350.725 522.494 351.437C521.436 352.123 521.202 352.757 520.734 353.926C520.639 354.699 520.41 356.292 520.417 356.626L520.432 427.524C520.433 431.612 519.636 435.516 518.094 439.212C516.541 442.935 514.413 446.166 511.667 448.912C508.979 451.659 505.764 453.763 502.082 455.341C498.459 456.86 494.602 457.62 490.629 457.62C486.538 457.62 482.564 456.86 478.824 455.341C475.084 453.763 471.812 451.659 469.064 448.912C466.201 446.049 463.971 442.78 462.462 439.153C460.932 435.476 460.188 431.614 460.182 427.524L460.064 357.332L460.058 355.476C460.058 353.898 459.042 352.751 457.786 351.554C456.529 350.355 455.098 349.801 453.462 349.801C452.235 349.801 450.966 350.129 449.721 350.736C448.453 351.355 448.104 351.889 447.403 352.94C447.203 353.579 447.009 354.312 447.039 354.571L446.975 356.112L445.923 428.342Z" fill="#FF4375"/>
<path d="M207.66 376.756V355.435C207.66 351.402 208.419 347.604 210.055 343.864C211.633 340.182 213.795 336.911 216.542 334.221C219.406 331.474 222.678 329.314 226.301 327.793C229.983 326.215 233.781 325.455 237.755 325.455C241.787 325.455 245.645 326.215 249.443 327.793C253.182 329.314 256.514 331.474 259.377 334.221C262.182 337.027 264.403 340.299 266.039 343.981C267.617 347.604 268.435 351.402 268.435 355.435V376.756H207.66Z" fill="#FF93B3"/>
<path d="M309.517 376.706V355.385C309.517 351.47 310.335 347.729 311.972 343.989C313.667 340.308 315.887 336.977 318.75 334.171C321.614 331.424 324.945 329.264 328.802 327.744C332.601 326.165 336.574 325.405 340.665 325.405C344.639 325.405 348.437 326.165 352.061 327.744C355.625 329.264 358.898 331.424 361.703 334.171C364.449 336.861 366.553 340.132 368.073 343.814C369.534 347.554 370.293 351.352 370.293 355.385V376.706H309.517Z" fill="#FF93B3"/>
<path d="M264.58 378.397C264.58 381.318 265.164 384.122 266.391 386.694C267.56 389.265 269.197 391.368 271.242 393.124C273.287 394.935 275.741 396.337 278.546 397.273C281.293 398.266 284.274 398.732 287.312 398.732C293.156 398.732 297.598 397.039 300.695 393.589C303.792 390.2 305.428 385.234 305.662 378.69V367.008H366.438V377.696C366.438 388.623 364.451 399.083 360.535 409.02C356.62 418.953 350.952 427.718 343.647 435.373C336.459 443.029 328.044 448.931 318.343 453.081C308.642 457.288 298.299 459.333 287.312 459.333C276.267 459.333 265.69 457.288 255.58 453.081C245.47 448.931 236.471 443.029 228.64 435.373C220.751 427.601 214.615 418.779 210.29 408.843C205.966 398.908 203.804 388.447 203.804 377.52V367.008H264.58V378.397Z" fill="#FF4375"/>
<path d="M211.23 289.086V272.223C211.23 269.034 211.888 266.03 213.303 263.072C214.668 260.16 216.539 257.573 218.915 255.446C221.393 253.273 224.224 251.565 227.359 250.362C230.544 249.114 233.83 248.513 237.268 248.513C240.756 248.513 244.094 249.114 247.38 250.362C250.615 251.565 253.497 253.273 255.975 255.446C258.401 257.665 260.323 260.253 261.739 263.165C263.103 266.03 263.811 269.034 263.811 272.223V289.086H211.23Z" fill="#FF93B3"/>
<path d="M207.353 273.32V290.741C207.353 294.036 208.011 297.139 209.428 300.195C210.794 303.203 212.666 305.876 215.045 308.074C217.524 310.319 220.358 312.084 223.496 313.326C226.684 314.616 229.974 315.236 233.415 315.236C236.907 315.236 240.248 314.616 243.537 313.326C246.775 312.084 249.661 310.319 252.14 308.074C254.569 305.781 256.493 303.108 257.909 300.099C259.276 297.139 259.984 294.036 259.984 290.741V273.32H207.353Z" fill="#FF4375"/>
<path d="M315.204 289.086V272.223C315.204 269.034 315.862 266.03 317.277 263.072C318.642 260.16 320.512 257.573 322.889 255.446C325.366 253.273 328.197 251.565 331.332 250.362C334.517 249.114 337.803 248.513 341.242 248.513C344.73 248.513 348.067 249.114 351.353 250.362C354.589 251.565 357.471 253.273 359.948 255.446C362.375 257.665 364.297 260.253 365.712 263.165C367.077 266.03 367.785 269.034 367.785 272.223V289.086H315.204Z" fill="#FF93B3"/>
<path d="M311.327 273.32V290.741C311.327 294.036 311.984 297.139 313.401 300.195C314.768 303.203 316.64 305.876 319.019 308.074C321.499 310.319 324.332 312.084 327.47 313.326C330.658 314.616 333.948 315.236 337.389 315.236C340.881 315.236 344.221 314.616 347.511 313.326C350.749 312.084 353.634 310.319 356.114 308.074C358.543 305.781 360.467 303.108 361.883 300.099C363.249 297.139 363.958 294.036 363.958 290.741V273.32H311.327Z" fill="#FF4375"/>
<path d="M268.435 377.785C268.435 380.788 269.019 383.671 270.247 386.315C271.415 388.958 273.052 391.119 275.097 392.924C277.142 394.786 279.597 396.227 282.402 397.189C285.149 398.209 288.129 398.689 291.167 398.689C297.011 398.689 301.453 396.948 304.55 393.403C307.647 389.919 309.283 384.814 309.517 378.086V366.078H370.293V377.064C370.293 388.297 368.307 399.05 364.391 409.265C360.476 419.475 354.807 428.485 347.502 436.355C340.315 444.225 331.899 450.292 322.199 454.558C312.498 458.883 302.155 460.985 291.167 460.985C280.123 460.985 269.546 458.883 259.436 454.558C249.326 450.292 240.326 444.225 232.495 436.355C224.606 428.365 218.47 419.297 214.146 409.083C209.821 398.87 207.66 388.117 207.66 376.884V366.078H268.435V377.785Z" fill="#FF93B3"/>
<path d="M211.208 272.515V290.461C211.208 293.855 211.867 297.052 213.285 300.2C214.653 303.299 216.527 306.052 218.909 308.316C221.391 310.629 224.227 312.447 227.369 313.726C230.56 315.055 233.853 315.694 237.298 315.694C240.793 315.694 244.137 315.055 247.43 313.726C250.672 312.447 253.56 310.629 256.042 308.316C258.474 305.955 260.399 303.201 261.818 300.102C263.185 297.052 263.894 293.855 263.894 290.461V272.515H211.208Z" fill="#FF93B3"/>
<path d="M315.182 272.92V290.591C315.182 293.933 315.84 297.081 317.256 300.18C318.623 303.232 320.495 305.943 322.874 308.172C325.354 310.449 328.188 312.24 331.326 313.499C334.514 314.808 337.803 315.437 341.245 315.437C344.736 315.437 348.077 314.808 351.366 313.499C354.605 312.24 357.489 310.449 359.969 308.172C362.398 305.847 364.322 303.135 365.739 300.084C367.105 297.081 367.813 293.933 367.813 290.591V272.92H315.182Z" fill="#FF93B3"/>
</svg>
